# xmcd CD database file
#
# Track frame offsets:
#	150
#	43320
#	79232
#	103187
#	141102
#	179035
#	204525
#
# Disc length: 2815 seconds
#
# Revision: 1
# Processed by: cddbd v1.4PL0 Copyright (c) Steve Scherf et al.
# Submitted via: CDex 1.51
#
DISCID=690afd07
DTITLE=The Cees Slinger Octet - Live At The North Sea Jazz Festival
DYEAR=1982
DGENRE=Jazz
TTITLE0=From Way Back
TTITLE1=Never Forever
TTITLE2=The Touch Of Your Lips
TTITLE3=Changing Colours
TTITLE4=Fee-Fi-Fo-Fum
TTITLE5=Two Bass Hit
TTITLE6=Killer Joe
EXTD=YEAR: 1982
EXTT0=
EXTT1=
EXTT2=
EXTT3=
EXTT4=
EXTT5=
EXTT6=
PLAYORDER=
